<svg width="148" height="35" viewBox="0 0 148 35" fill="none" xmlns="http://www.w3.org/2000/svg">
<g clip-path="url(#clip0_12645_107257)">
<path d="M104.601 13.3355H102.12V24.5886H98.3987V13.3355H96.1392V9.56963H98.3987V3.89874H102.12V9.56963H104.601V13.3355Z" fill="white"/>
<path d="M117.272 24.5886V23.3924L116.253 23.9241C115.721 24.1456 115.19 24.3228 114.658 24.4114C114.126 24.5443 113.595 24.5886 113.063 24.5886C111.911 24.5886 110.848 24.3671 109.918 23.9684C108.943 23.5696 108.101 22.9937 107.392 22.2848C106.683 21.576 106.152 20.7342 105.709 19.7595C105.31 18.7848 105.089 17.7658 105.089 16.6139C105.089 15.462 105.221 15.019 105.443 14.2658C105.664 13.5127 106.019 12.8481 106.418 12.1836C106.861 11.5633 107.348 10.9874 107.924 10.5C108.5 10.0127 109.164 9.56963 109.873 9.2595C110.804 8.81646 111.867 8.63925 113.019 8.63925C114.171 8.63925 115.19 8.86077 116.12 9.2595C116.253 9.30381 116.43 9.39241 116.608 9.48102C116.785 9.56963 117.006 9.65824 117.228 9.79115V8.50634H120.949V24.5443H117.228L117.272 24.5886ZM113.196 20.8228C114.038 20.8228 114.791 20.6013 115.456 20.1139C116.12 19.6266 116.608 19.0063 116.918 18.2532C117.095 17.8987 117.228 17.4114 117.272 16.8798V16.4367C117.272 15.9051 117.095 15.462 116.918 15.0633C116.608 14.2658 116.076 13.6013 115.456 13.1582C114.791 12.7152 114.038 12.4937 113.196 12.4937C112.354 12.4937 112.089 12.6266 111.601 12.8481C111.07 13.0696 110.626 13.3798 110.272 13.7342C109.873 14.1329 109.563 14.5317 109.342 15.0633C109.12 15.5506 108.987 16.0823 108.987 16.6582C108.987 17.2342 109.12 17.7658 109.342 18.2975C109.563 18.8291 109.873 19.2722 110.272 19.6266C110.671 20.0253 111.114 20.2911 111.601 20.5127C112.133 20.7342 112.664 20.8228 113.196 20.8228Z" fill="white"/>
<path d="M124.272 24.5886V5.05064H127.994V24.5886H124.272Z" fill="white"/>
<path d="M146.734 8.72786L140.975 15.3734L146.734 24.5886H142.126L138.228 18.2532C137.962 18.519 137.563 18.962 137.032 19.538C136.5 20.1582 135.88 20.8671 135.127 21.7532V24.5886H131.449V5.00634H135.127V16.5696C136.234 15.2405 137.386 13.9557 138.538 12.6266C139.69 11.2975 140.797 10.0127 141.949 8.72786H146.734Z" fill="white"/>
<path d="M49.1328 22.1519C48.6012 22.6835 48.0695 23.1266 47.4936 23.481C46.9176 23.8354 46.3417 24.1013 45.7657 24.3228C45.1898 24.5 44.6138 24.6329 44.0379 24.7215C43.4619 24.8101 42.886 24.8544 42.3544 24.8544C41.2911 24.8544 40.2721 24.6329 39.2974 24.2342C38.367 23.7911 37.5252 23.2152 36.8164 22.5063C36.1075 21.7975 35.5759 20.9557 35.1771 19.981C34.7784 19.0063 34.5569 17.9873 34.5569 16.8797C34.5569 15.7721 34.7784 14.7531 35.1771 13.7785C35.5759 12.8038 36.1518 11.9177 36.8164 11.1645C37.5252 10.4114 38.3227 9.83543 39.2974 9.43669C40.2278 8.99366 41.2468 8.81644 42.3544 8.81644C43.4619 8.81644 44.6138 8.99366 45.6771 9.39239C46.7404 9.74682 47.8037 10.4114 48.7784 11.3861L46.2974 14.3101C45.6771 13.7342 45.0569 13.3354 44.348 13.0696C43.6392 12.8038 42.9746 12.6709 42.3544 12.6709C41.7341 12.6709 41.2911 12.8038 40.8037 13.0253C40.3607 13.2468 39.9176 13.5569 39.5632 13.9557C39.2088 14.3544 38.8987 14.7975 38.6771 15.3291C38.4999 15.8164 38.367 16.3924 38.367 16.9683C38.367 17.5443 38.4556 18.0759 38.6771 18.5633C38.8987 19.0506 39.1645 19.538 39.5632 19.8924C39.9176 20.2468 40.3607 20.5569 40.8037 20.7785C41.2911 21 41.8227 21.0886 42.3544 21.0886C42.886 21.0886 43.0189 21.0886 43.4176 21C43.8607 20.9557 44.2594 20.8671 44.6582 20.7342C45.1012 20.6012 45.4999 20.424 45.8987 20.2468C46.2974 20.0696 46.6518 19.8038 46.9619 19.538L49.1771 22.1962L49.1328 22.1519ZM53.8733 9.92404C54.6708 9.481 55.424 9.17087 56.0442 9.03796C56.6645 8.86074 57.329 8.81644 57.9936 8.81644C58.6581 8.81644 58.7024 8.81644 59.1012 8.90505C59.5442 8.90505 60.0316 8.99366 60.5632 9.12657V12.9367C59.8987 12.7595 59.367 12.7152 58.924 12.7152C58.4809 12.7152 58.4809 12.7152 58.1708 12.7595C57.8607 12.7595 57.5949 12.8038 57.2847 12.8481C56.0885 13.0696 55.2025 13.5569 54.7151 14.3987C54.1392 15.2405 53.8733 16.038 53.9176 16.7468V24.7215H50.1518V8.72783H53.9176V9.92404H53.8733ZM68.2278 8.63923C69.3354 8.63923 70.3987 8.86074 71.329 9.25948C72.3037 9.65821 73.1455 10.2342 73.8101 10.9873C74.5189 11.6962 75.0949 12.538 75.4493 13.5126C75.848 14.4873 76.0695 15.5063 76.0695 16.6139C76.0695 17.7215 75.848 18.7848 75.4493 19.7595C75.0506 20.7342 74.5189 21.5759 73.8101 22.2848C73.1012 22.9937 72.2594 23.5696 71.329 24.0126C70.3987 24.4114 69.3354 24.6329 68.2278 24.6329C67.1202 24.6329 66.0126 24.4114 65.0379 24.0126C64.0632 23.5696 63.2214 22.9937 62.5126 22.2848C61.8037 21.5759 61.2721 20.7342 60.8733 19.7595C60.4746 18.7848 60.2531 17.7215 60.2531 16.6139C60.2531 15.5063 60.4746 14.4873 60.8733 13.5126C61.2721 12.538 61.848 11.6962 62.5126 10.9873C63.2214 10.2342 64.0632 9.65821 65.0379 9.25948C66.0126 8.81644 67.0759 8.63923 68.2278 8.63923ZM68.3164 20.8671C68.848 20.8671 69.3797 20.7785 69.867 20.5569C70.3544 20.3354 70.7974 20.0696 71.1961 19.6709C71.5949 19.2721 71.905 18.8291 72.0822 18.3418C72.3037 17.8101 72.4366 17.2785 72.4366 16.6582C72.4366 16.038 72.3037 15.5506 72.0822 15.0633C71.8607 14.5759 71.5506 14.1329 71.1961 13.7342C70.8417 13.3354 70.3987 13.0253 69.867 12.8481C69.3797 12.6266 68.848 12.4937 68.3164 12.4937C67.7847 12.4937 67.2088 12.6266 66.6771 12.8481C66.1898 13.0696 65.7468 13.3797 65.348 13.7342C64.9493 14.0886 64.6392 14.5316 64.4176 15.0633C64.1961 15.5506 64.1075 16.0823 64.1075 16.6582C64.1075 17.2342 64.1961 17.8101 64.4176 18.3418C64.6392 18.8291 64.9493 19.3164 65.348 19.6709C65.7468 20.0253 66.1898 20.3354 66.6771 20.5569C67.2088 20.7785 67.7404 20.8671 68.3164 20.8671ZM81.5189 8.77214V10.1456C82.2721 9.56961 82.9366 9.17087 83.6012 8.94935C84.2657 8.72783 84.9746 8.59492 85.7278 8.63923C86.8354 8.63923 87.8987 8.86074 88.8733 9.25948C89.848 9.65821 90.6898 10.2342 91.3987 10.943C92.1075 11.6519 92.6835 12.4937 93.0822 13.4683C93.4809 14.443 93.7025 15.462 93.7025 16.5696C93.7025 17.6772 93.5695 18.2088 93.348 18.962C93.1265 19.7152 92.7721 20.3797 92.3733 21.0443C91.9303 21.6645 91.443 22.2405 90.8227 22.7278C90.2468 23.2152 89.5822 23.6582 88.8733 23.9683C88.386 24.1899 87.8544 24.3228 87.3227 24.4557C86.7911 24.5443 86.2594 24.5886 85.7278 24.5886C84.6202 24.5886 83.6012 24.4114 82.6708 24.0126C82.5379 23.924 82.3607 23.8354 82.2278 23.7025C82.0506 23.5696 81.829 23.3924 81.5189 23.1266V29.3291H77.7974V8.77214H81.5189ZM85.6392 12.3607C84.7974 12.3607 84.0442 12.5823 83.3797 13.0696C82.7151 13.5126 82.2278 14.1329 81.9176 14.9304C81.6961 15.3291 81.6075 15.8164 81.5632 16.3481V16.5696C81.5632 17.1456 81.6518 17.6772 81.8733 18.1645C82.0949 18.6519 82.405 19.1392 82.7594 19.4937C83.1581 19.8481 83.6012 20.1582 84.0885 20.3797C84.5759 20.6013 85.1075 20.6899 85.6392 20.6899C86.1708 20.6899 86.7468 20.6013 87.2341 20.3797C87.7657 20.1582 88.2088 19.8481 88.6075 19.4937C89.0062 19.0949 89.3164 18.6519 89.4936 18.1645C89.7151 17.6772 89.848 17.1456 89.848 16.5696C89.848 15.9937 89.7151 15.462 89.4936 14.9747C89.2721 14.443 88.9619 14 88.6075 13.6456C88.2088 13.2468 87.7657 12.9367 87.2341 12.7595C86.7468 12.538 86.2151 12.405 85.6392 12.405V12.3607Z" fill="white"/>
<path fill-rule="evenodd" clip-rule="evenodd" d="M1.90509 14.3987C1.37344 14.5316 1.06331 15.019 1.19623 15.5506C2.39243 20.0696 4.47471 24.1899 7.35445 27.6899C9.21521 29.9937 11.2975 31.943 13.8671 33.7595C14.2861 34.0557 14.4431 33.981 14.7089 33.8924C14.9747 33.8038 15.7279 33.7595 16.0823 33.8924C16.4367 34.0253 16.6582 33.8924 16.8798 33.7595C17.4114 33.3608 17.9874 32.962 18.4304 32.5633C20.1582 31.1899 21.8861 29.5063 23.2152 27.8671C25.2532 25.3861 26.8924 22.5949 28.1329 19.5823C28.6646 18.2975 29.1076 16.9241 29.462 15.5506C29.8165 14.1772 29.2848 14.5316 28.7532 14.3987C19.8924 12.4937 10.7658 12.4937 1.90509 14.3987Z" fill="white"/>
<path fill-rule="evenodd" clip-rule="evenodd" d="M30.5696 2.3038H30.481C29.2848 1.94937 26.7152 1.37342 25.4304 1.10759C23.0823 0.664557 21.0886 0.35443 19.1392 0.177215C17.6329 0.0443038 16.8798 0 15.2848 0C14.5317 0 13.7785 0 13.6456 0C11.1203 0.0886076 9.03798 0.310127 6.46836 0.753165C4.20887 1.24051 0.930385 1.99367 0.221524 2.17089C0.132917 2.17089 0.0886127 2.25949 0.0886127 2.3481C0.0886127 2.48101 -0.0442986 7.22152 0.0886127 9.17089C0.221524 10.5 1.28482 11.519 2.61393 11.5633C11.076 11.962 19.6266 11.962 28.0443 11.5633C29.3734 11.519 30.4367 10.4557 30.5696 9.12658C30.5696 8.86076 30.6139 8.59494 30.6139 8.28481C30.7025 6.68987 30.5696 2.3038 30.5696 2.3038ZM25.6962 6.46835C25.6962 8.1076 24.3671 9.43671 22.7279 9.43671H6.77849C5.13925 9.43671 3.81013 8.1076 3.81013 6.46835V6.06962C3.81013 4.43038 5.13925 3.10127 6.77849 3.10127H22.7279C24.3671 3.10127 25.6962 4.43038 25.6962 6.06962V6.46835Z" fill="white"/>
<path d="M8.41779 8.01899C9.37205 8.01899 10.1456 7.24541 10.1456 6.29114C10.1456 5.33688 9.37205 4.56329 8.41779 4.56329C7.46353 4.56329 6.68994 5.33688 6.68994 6.29114C6.68994 7.24541 7.46353 8.01899 8.41779 8.01899Z" fill="white"/>
<path d="M21.2659 8.01899C22.2202 8.01899 22.9938 7.24541 22.9938 6.29114C22.9938 5.33688 22.2202 4.56329 21.2659 4.56329C20.3117 4.56329 19.5381 5.33688 19.5381 6.29114C19.5381 7.24541 20.3117 8.01899 21.2659 8.01899Z" fill="white"/>
</g>
<defs>
<clipPath id="clip0_12645_107257">
<rect width="147.089" height="35" fill="white"/>
</clipPath>
</defs>
</svg>
